<svg version="1.1" id="Layer_1" xmlns="http://www.w3.org/2000/svg" xmlns:xlink="http://www.w3.org/1999/xlink" x="0px" y="0px"
	 width="100%" viewBox="0 0 500 500" enable-background="new 0 0 500 500" xml:space="preserve">
<path fill="#FFFFFF" opacity="1.000000" stroke="none" 
	d="
M323.000000,501.000000 
	C215.333359,501.000000 108.166718,501.000000 1.000057,501.000000 
	C1.000038,334.333405 1.000038,167.666794 1.000019,1.000147 
	C167.666565,1.000098 334.333130,1.000098 500.999756,1.000049 
	C500.999847,167.666519 500.999847,334.333038 500.999939,500.999786 
	C441.833344,501.000000 382.666656,501.000000 323.000000,501.000000 
M197.788666,173.181168 
	C197.788666,173.181168 197.670990,173.239532 197.759842,173.716812 
	C197.869537,174.044006 198.083282,174.274796 198.463104,174.490616 
	C198.463104,174.490616 198.435562,174.589218 198.637512,175.195175 
	C199.399796,176.497360 200.162064,177.799545 200.975739,179.034119 
	C200.975739,179.034119 200.890915,179.038315 200.888824,179.667480 
	C201.180695,180.189957 201.472565,180.712448 201.812393,181.119888 
	C201.812393,181.119888 201.689545,181.140854 201.779831,181.879486 
	C202.533829,183.883102 203.287842,185.886734 203.999146,187.946732 
	C203.999146,187.946732 204.059631,187.983353 204.008575,188.696091 
	C204.567047,190.217621 205.125519,191.739136 205.672348,193.140533 
	C205.672348,193.140533 205.584061,193.222839 205.653961,194.022659 
	C206.189972,195.889725 206.725998,197.756790 207.326096,199.847061 
	C214.601166,199.847061 221.650772,199.847061 229.189728,200.044189 
	C229.365326,200.053864 229.540909,200.063538 229.844437,200.964066 
	C229.820663,203.977280 229.796875,206.990479 229.313507,210.676804 
	C229.234680,211.335052 229.087021,211.993301 229.086853,212.651566 
	C229.074615,258.149536 229.068649,303.647491 229.101501,349.145447 
	C229.102432,350.424316 229.529083,351.702850 229.840698,353.651215 
	C229.816193,354.099335 229.791687,354.547424 229.480545,355.186096 
	C229.579178,355.462860 229.677826,355.739655 229.870499,356.647339 
	C229.846985,357.071442 229.823456,357.495514 229.536850,358.233948 
	C229.794037,358.461517 230.051208,358.689056 231.206223,358.956512 
	C243.657593,358.956512 256.108948,358.956512 269.069977,358.956512 
	C269.069977,356.869202 269.069946,355.251068 269.069977,353.632935 
	C269.070099,316.135590 269.070374,278.638245 269.070435,241.140915 
	C269.070435,233.808105 268.942383,226.471222 269.176666,219.145920 
	C269.223572,217.679352 270.649811,216.256912 271.440063,214.814117 
	C273.510803,217.299911 274.282593,219.124985 274.932709,220.992416 
	C290.408600,265.448822 305.916504,309.894226 321.252594,354.398865 
	C322.501068,358.021942 324.177887,359.220886 327.979736,359.084290 
	C336.634644,358.773346 345.313202,358.813385 353.971924,359.063660 
	C357.491211,359.165375 359.156586,358.141998 360.341400,354.678131 
	C369.439728,328.079224 378.763367,301.557343 388.025726,275.014587 
	C394.601990,256.169373 401.159393,237.317352 407.849365,218.512527 
	C408.287537,217.280807 409.786407,216.426437 410.791901,215.396545 
	C411.434601,216.741806 412.188995,218.048294 412.674744,219.448013 
	C412.933197,220.192719 412.729309,221.098846 412.729431,221.932114 
	C412.735260,265.595642 412.740540,309.259186 412.745819,352.922729 
	C412.746063,354.834137 412.745880,356.745544 412.745880,358.642059 
	C426.638702,358.642059 439.714752,358.642059 452.728790,358.642059 
	C452.728790,286.270844 452.728790,214.238922 452.728790,141.989624 
	C435.947815,141.989624 419.623810,142.127869 403.305298,141.889175 
	C399.389374,141.831879 398.017639,143.227524 396.806305,146.792694 
	C379.735870,197.033539 362.489258,247.214600 345.196136,297.379395 
	C344.687225,298.855713 343.203400,299.995941 342.174164,301.292908 
	C341.260254,300.045441 339.985840,298.926056 339.490082,297.530090 
	C335.872314,287.343262 332.421875,277.097076 328.898315,266.876709 
	C315.020691,226.623672 301.102081,186.384705 287.322510,146.098160 
	C286.316071,143.155731 285.138031,141.874405 281.828247,141.912750 
	C264.665222,142.111618 247.499222,142.050369 229.751312,142.231003 
	C229.442810,142.711578 229.134308,143.192154 228.233841,143.551147 
	C227.835388,143.495819 227.436951,143.440506 226.837540,143.148499 
	C226.503220,143.014572 226.235367,143.086136 225.874329,143.551590 
	C225.874329,143.551590 225.914566,143.795227 225.463333,143.622894 
	C225.463333,143.622894 225.012558,143.796387 224.098526,143.558777 
	C162.894302,143.558777 101.690071,143.558777 40.431576,143.558777 
	C40.431576,162.617661 40.431576,181.126755 40.431576,199.878540 
	C45.670853,199.878540 50.525459,199.498337 55.293549,199.978058 
	C60.830814,200.535141 63.846794,198.828232 64.094002,192.281891 
	C64.922729,189.766037 65.754745,187.251236 66.579681,184.734146 
	C73.706284,162.989120 86.232658,160.229340 109.935509,163.965897 
	C109.927315,215.889191 109.969704,267.812592 109.850815,319.735626 
	C109.834869,326.700104 109.004753,333.662750 108.565620,340.679962 
	C108.565620,340.679962 108.619087,340.695007 108.126900,341.130249 
	C107.452759,342.526794 106.778618,343.923340 105.786728,345.458832 
	C105.596596,345.615112 105.493660,345.816101 105.096031,346.373657 
	C105.096031,346.373657 104.918411,346.833649 104.240929,347.063599 
	C99.735405,349.017303 95.229881,350.971039 90.494896,353.024261 
	C90.494896,355.866150 90.494896,359.119171 90.494896,362.639343 
	C120.090195,362.639343 149.393921,362.639343 179.133713,362.639343 
	C179.133713,359.890259 179.342896,357.405975 179.037537,354.986633 
	C178.902985,353.920624 177.722809,352.986542 176.370850,351.673248 
	C172.932236,350.422028 169.493622,349.170807 166.010178,348.000549 
	C166.010178,348.000549 166.077011,347.936371 165.848541,347.436951 
	C165.396225,347.139374 164.943909,346.841797 164.189728,346.762054 
	C164.189728,346.762054 164.455215,346.501068 164.262344,345.989227 
	C163.877975,345.620239 163.493607,345.251251 163.021896,344.969452 
	C163.021896,344.969452 163.136261,344.923035 163.063156,344.345795 
	C162.706787,343.900360 162.350403,343.454956 162.000610,343.000000 
	C162.000610,343.000000 161.991531,343.002838 161.965805,342.190765 
	C161.280701,336.623047 160.018051,331.057129 160.000610,325.487335 
	C159.841217,274.618042 159.902084,223.748093 159.878677,172.878326 
	C159.877762,170.895798 159.675171,168.913361 159.726456,166.138763 
	C159.712051,165.062408 159.697647,163.986038 160.573090,162.446960 
	C168.378067,162.747269 176.183060,163.047562 184.161453,163.463165 
	C184.161453,163.463165 184.366486,163.426712 184.917938,163.879730 
	C186.258591,164.301361 187.599228,164.722992 189.349442,165.659393 
	C191.851013,167.799728 194.352585,169.940063 196.965881,172.616501 
	C197.231384,172.847626 197.496872,173.078735 197.788666,173.181168 
z"/>
<path fill="#FB3232" opacity="1.000000" stroke="none" 
	d="
M229.767181,354.995544 
	C229.791687,354.547424 229.816193,354.099335 229.926788,352.867950 
	C230.039703,305.542999 230.068161,259.001343 230.079956,212.459671 
	C230.080170,211.641037 229.879852,210.822357 229.773102,210.003693 
	C229.796875,206.990479 229.820663,203.977280 229.903839,200.061096 
	C229.984421,197.172897 230.013336,195.187714 230.025528,193.202454 
	C230.130157,176.161560 230.231735,159.120651 230.334229,142.079758 
	C247.499222,142.050369 264.665222,142.111618 281.828247,141.912750 
	C285.138031,141.874405 286.316071,143.155731 287.322510,146.098160 
	C301.102081,186.384705 315.020691,226.623672 328.898315,266.876709 
	C332.421875,277.097076 335.872314,287.343262 339.490082,297.530090 
	C339.985840,298.926056 341.260254,300.045441 342.174164,301.292908 
	C343.203400,299.995941 344.687225,298.855713 345.196136,297.379395 
	C362.489258,247.214600 379.735870,197.033539 396.806305,146.792694 
	C398.017639,143.227524 399.389374,141.831879 403.305298,141.889175 
	C419.623810,142.127869 435.947815,141.989624 452.728790,141.989624 
	C452.728790,214.238922 452.728790,286.270844 452.728790,358.642059 
	C439.714752,358.642059 426.638702,358.642059 412.745880,358.642059 
	C412.745880,356.745544 412.746063,354.834137 412.745819,352.922729 
	C412.740540,309.259186 412.735260,265.595642 412.729431,221.932114 
	C412.729309,221.098846 412.933197,220.192719 412.674744,219.448013 
	C412.188995,218.048294 411.434601,216.741806 410.791901,215.396545 
	C409.786407,216.426437 408.287537,217.280807 407.849365,218.512527 
	C401.159393,237.317352 394.601990,256.169373 388.025726,275.014587 
	C378.763367,301.557343 369.439728,328.079224 360.341400,354.678131 
	C359.156586,358.141998 357.491211,359.165375 353.971924,359.063660 
	C345.313202,358.813385 336.634644,358.773346 327.979736,359.084290 
	C324.177887,359.220886 322.501068,358.021942 321.252594,354.398865 
	C305.916504,309.894226 290.408600,265.448822 274.932709,220.992416 
	C274.282593,219.124985 273.510803,217.299911 271.440063,214.814117 
	C270.649811,216.256912 269.223572,217.679352 269.176666,219.145920 
	C268.942383,226.471222 269.070435,233.808105 269.070435,241.140915 
	C269.070374,278.638245 269.070099,316.135590 269.069977,353.632935 
	C269.069946,355.251068 269.069977,356.869202 269.069977,358.956512 
	C256.108948,358.956512 243.657593,358.956512 230.666718,358.667847 
	C230.018097,358.226013 229.909012,358.072815 229.799942,357.919617 
	C229.823456,357.495514 229.846985,357.071442 229.910583,356.076202 
	C229.889511,355.335236 229.828354,355.165375 229.767181,354.995544 
z"/>
<path fill="#245796" opacity="1.000000" stroke="none" 
	d="
M159.683228,162.909698 
	C159.697647,163.986038 159.712051,165.062408 159.296814,166.690216 
	C158.596085,169.154892 158.089905,171.067886 158.088196,172.981354 
	C158.044189,222.350555 157.983215,271.720032 158.139313,321.088776 
	C158.159042,327.329071 159.286545,333.575928 160.095444,339.794434 
	C160.242767,340.926971 161.335312,341.936523 161.991516,343.002838 
	C161.991531,343.002838 162.000610,343.000000 161.998352,343.309967 
	C162.376129,344.054291 162.756195,344.488678 163.136261,344.923035 
	C163.136261,344.923035 163.021896,344.969452 163.060577,345.252106 
	C163.551254,345.856842 164.003235,346.178955 164.455231,346.501068 
	C164.455215,346.501068 164.189728,346.762054 164.316147,346.975800 
	C164.987381,347.438477 165.532196,347.687408 166.077011,347.936371 
	C166.077011,347.936371 166.010178,348.000549 166.079987,348.318909 
	C169.380646,349.831757 172.611511,351.026245 176.089066,352.497314 
	C176.814545,354.918152 177.902420,357.185699 177.504303,359.152405 
	C177.317108,360.077118 174.273758,360.945038 172.520660,360.953033 
	C147.248016,361.067993 121.973549,360.907776 96.702538,361.140778 
	C91.844978,361.185547 91.190292,358.698669 92.192841,355.379852 
	C92.633919,353.919708 95.123940,352.926941 96.847336,352.039917 
	C99.718765,350.562012 104.113251,351.519440 104.918411,346.833649 
	C104.918411,346.833649 105.096031,346.373657 105.467400,346.217529 
	C105.838768,346.061401 106.190231,345.979095 106.553558,345.926880 
	C107.484283,344.148102 108.051689,342.421539 108.619095,340.695007 
	C108.619087,340.695007 108.565620,340.679962 108.991135,340.714661 
	C109.942200,338.861572 110.924088,336.974487 110.926964,335.085876 
	C111.011703,279.469269 111.007690,223.852509 110.962067,168.235809 
	C110.960648,166.504608 110.368271,164.773895 110.051407,163.042953 
	C86.232658,160.229340 73.706284,162.989120 66.579681,184.734146 
	C65.754745,187.251236 64.922729,189.766037 63.600624,192.721268 
	C61.790264,197.527496 58.693672,198.612122 54.498993,198.054535 
	C52.534985,197.793457 50.482426,197.807114 48.513683,198.050156 
	C43.582268,198.658920 41.755817,196.890656 41.881969,191.696259 
	C42.209435,178.212845 42.067169,164.715408 41.950413,151.224976 
	C41.896488,144.994720 41.725082,144.992386 48.062206,144.992386 
	C105.026001,144.992264 161.989822,145.005890 218.953537,144.944000 
	C220.973633,144.941803 222.992905,144.195755 225.012558,143.796387 
	C225.012558,143.796387 225.463333,143.622894 225.856506,144.108795 
	C226.473785,145.217712 226.891449,145.840042 226.893692,146.463882 
	C226.951294,162.456711 227.000549,178.449890 226.910355,194.442245 
	C226.904190,195.535263 225.861923,197.518921 225.190338,197.567993 
	C220.391800,197.918701 215.508911,198.322144 210.773544,197.735153 
	C208.886276,197.501221 207.304764,194.800568 205.584061,193.222839 
	C205.584061,193.222839 205.672348,193.140533 205.777908,192.793121 
	C205.275528,190.958252 204.667572,189.470810 204.059631,187.983353 
	C204.059631,187.983353 203.999146,187.946732 204.016312,187.527893 
	C203.252167,185.119644 202.470856,183.130249 201.689545,181.140854 
	C201.689545,181.140854 201.812393,181.119888 201.846252,180.850128 
	C201.550369,180.066345 201.220642,179.552322 200.890915,179.038315 
	C200.890915,179.038315 200.975739,179.034119 200.979919,178.673279 
	C200.134598,177.071365 199.285080,175.830292 198.435562,174.589218 
	C198.435562,174.589218 198.463104,174.490616 198.525574,174.164551 
	C198.282364,173.638824 197.976669,173.439178 197.670990,173.239532 
	C197.670990,173.239532 197.788666,173.181168 197.749435,172.963608 
	C197.424850,172.524170 197.139496,172.302292 196.854156,172.080399 
	C194.352585,169.940063 191.851013,167.799728 188.946655,165.092224 
	C187.151413,164.158951 185.758942,163.792831 184.366486,163.426712 
	C184.366486,163.426712 184.161453,163.463165 183.868164,163.061188 
	C176.020477,162.127197 168.467636,161.567749 160.907135,161.145050 
	C160.533218,161.124146 160.092728,162.294205 159.683228,162.909698 
z"/>
<path fill="#3A5988" opacity="1.000000" stroke="none" 
	d="
M224.555542,143.677582 
	C222.992905,144.195755 220.973633,144.941803 218.953537,144.944000 
	C161.989822,145.005890 105.026001,144.992264 48.062206,144.992386 
	C41.725082,144.992386 41.896488,144.994720 41.950413,151.224976 
	C42.067169,164.715408 42.209435,178.212845 41.881969,191.696259 
	C41.755817,196.890656 43.582268,198.658920 48.513683,198.050156 
	C50.482426,197.807114 52.534985,197.793457 54.498993,198.054535 
	C58.693672,198.612122 61.790264,197.527496 63.458977,193.073395 
	C63.846794,198.828232 60.830814,200.535141 55.293549,199.978058 
	C50.525459,199.498337 45.670853,199.878540 40.431576,199.878540 
	C40.431576,181.126755 40.431576,162.617661 40.431576,143.558777 
	C101.690071,143.558777 162.894302,143.558777 224.555542,143.677582 
z"/>
<path fill="#4E709A" opacity="1.000000" stroke="none" 
	d="
M161.978668,342.596802 
	C161.335312,341.936523 160.242767,340.926971 160.095444,339.794434 
	C159.286545,333.575928 158.159042,327.329071 158.139313,321.088776 
	C157.983215,271.720032 158.044189,222.350555 158.088196,172.981354 
	C158.089905,171.067886 158.596085,169.154892 159.216873,167.086273 
	C159.675171,168.913361 159.877762,170.895798 159.878677,172.878326 
	C159.902084,223.748093 159.841217,274.618042 160.000610,325.487335 
	C160.018051,331.057129 161.280701,336.623047 161.978668,342.596802 
z"/>
<path fill="#476A95" opacity="1.000000" stroke="none" 
	d="
M104.579666,346.948608 
	C104.113251,351.519440 99.718765,350.562012 96.847336,352.039917 
	C95.123940,352.926941 92.633919,353.919708 92.192841,355.379852 
	C91.190292,358.698669 91.844978,361.185547 96.702538,361.140778 
	C121.973549,360.907776 147.248016,361.067993 172.520660,360.953033 
	C174.273758,360.945038 177.317108,360.077118 177.504303,359.152405 
	C177.902420,357.185699 176.814545,354.918152 176.381210,352.428955 
	C176.623566,352.053497 176.820465,352.023041 177.017365,351.992554 
	C177.722809,352.986542 178.902985,353.920624 179.037537,354.986633 
	C179.342896,357.405975 179.133713,359.890259 179.133713,362.639343 
	C149.393921,362.639343 120.090195,362.639343 90.494896,362.639343 
	C90.494896,359.119171 90.494896,355.866150 90.494896,353.024261 
	C95.229881,350.971039 99.735405,349.017303 104.579666,346.948608 
z"/>
<path fill="#34567F" opacity="1.000000" stroke="none" 
	d="
M109.993454,163.504425 
	C110.368271,164.773895 110.960648,166.504608 110.962067,168.235809 
	C111.007690,223.852509 111.011703,279.469269 110.926964,335.085876 
	C110.924088,336.974487 109.942200,338.861572 108.984146,340.687805 
	C109.004753,333.662750 109.834869,326.700104 109.850815,319.735626 
	C109.969704,267.812592 109.927315,215.889191 109.993454,163.504425 
z"/>
<path fill="#3A5988" opacity="1.000000" stroke="none" 
	d="
M205.619019,193.622742 
	C207.304764,194.800568 208.886276,197.501221 210.773544,197.735153 
	C215.508911,198.322144 220.391800,197.918701 225.190338,197.567993 
	C225.861923,197.518921 226.904190,195.535263 226.910355,194.442245 
	C227.000549,178.449890 226.951294,162.456711 226.893692,146.463882 
	C226.891449,145.840042 226.473785,145.217712 226.082123,144.194946 
	C225.914566,143.795227 225.874329,143.551590 226.202057,143.576355 
	C226.699371,143.529129 226.868927,143.457169 227.038498,143.385193 
	C227.436951,143.440506 227.835388,143.495819 228.578156,144.108734 
	C228.848465,163.059906 228.774429,181.453491 228.700394,199.847061 
	C221.650772,199.847061 214.601166,199.847061 207.326096,199.847061 
	C206.725998,197.756790 206.189972,195.889725 205.619019,193.622742 
z"/>
<path fill="#C9B5C6" opacity="1.000000" stroke="none" 
	d="
M229.543304,210.340240 
	C229.879852,210.822357 230.080170,211.641037 230.079956,212.459671 
	C230.068161,259.001343 230.039703,305.542999 229.885056,352.533112 
	C229.529083,351.702850 229.102432,350.424316 229.101501,349.145447 
	C229.068649,303.647491 229.074615,258.149536 229.086853,212.651566 
	C229.087021,211.993301 229.234680,211.335052 229.543304,210.340240 
z"/>
<path fill="#C9B5C6" opacity="1.000000" stroke="none" 
	d="
M228.945068,199.945618 
	C228.774429,181.453491 228.848465,163.059906 228.874146,144.169525 
	C229.134308,143.192154 229.442810,142.711578 230.042770,142.155380 
	C230.231735,159.120651 230.130157,176.161560 230.025528,193.202454 
	C230.013336,195.187714 229.984421,197.172897 229.839874,199.615662 
	C229.540909,200.063538 229.365326,200.053864 228.945068,199.945618 
z"/>
<path fill="#4E709A" opacity="1.000000" stroke="none" 
	d="
M160.128174,162.678329 
	C160.092728,162.294205 160.533218,161.124146 160.907135,161.145050 
	C168.467636,161.567749 176.020477,162.127197 183.781464,163.003525 
	C176.183060,163.047562 168.378067,162.747269 160.128174,162.678329 
z"/>
<path fill="#4E709A" opacity="1.000000" stroke="none" 
	d="
M176.694122,351.832886 
	C176.820465,352.023041 176.623566,352.053497 176.134506,352.152344 
	C172.611511,351.026245 169.380646,349.831757 166.102386,348.278442 
	C169.493622,349.170807 172.932236,350.422028 176.694122,351.832886 
z"/>
<path fill="#34567F" opacity="1.000000" stroke="none" 
	d="
M108.373001,340.912628 
	C108.051689,342.421539 107.484283,344.148102 106.530502,345.762085 
	C106.144112,345.649536 106.104485,345.319885 106.104477,345.319885 
	C106.778618,343.923340 107.452759,342.526794 108.373001,340.912628 
z"/>
<path fill="#3A5988" opacity="1.000000" stroke="none" 
	d="
M201.734680,181.510162 
	C202.470856,183.130249 203.252167,185.119644 204.037659,187.499695 
	C203.287842,185.886734 202.533829,183.883102 201.734680,181.510162 
z"/>
<path fill="#3A5988" opacity="1.000000" stroke="none" 
	d="
M204.034103,188.339722 
	C204.667572,189.470810 205.275528,190.958252 205.783722,192.853180 
	C205.125519,191.739136 204.567047,190.217621 204.034103,188.339722 
z"/>
<path fill="#3A5988" opacity="1.000000" stroke="none" 
	d="
M198.536530,174.892197 
	C199.285080,175.830292 200.134598,177.071365 200.954224,178.707092 
	C200.162064,177.799545 199.399796,176.497360 198.536530,174.892197 
z"/>
<path fill="#4E709A" opacity="1.000000" stroke="none" 
	d="
M184.642212,163.653229 
	C185.758942,163.792831 187.151413,164.158951 188.741882,164.834839 
	C187.599228,164.722992 186.258591,164.301361 184.642212,163.653229 
z"/>
<path fill="#4E709A" opacity="1.000000" stroke="none" 
	d="
M165.962769,347.686646 
	C165.532196,347.687408 164.987381,347.438477 164.467087,346.866882 
	C164.943909,346.841797 165.396225,347.139374 165.962769,347.686646 
z"/>
<path fill="#3A5988" opacity="1.000000" stroke="none" 
	d="
M200.889862,179.352905 
	C201.220642,179.552322 201.550369,180.066345 201.822266,180.907654 
	C201.472565,180.712448 201.180695,180.189957 200.889862,179.352905 
z"/>
<path fill="#4E709A" opacity="1.000000" stroke="none" 
	d="
M164.358795,346.245148 
	C164.003235,346.178955 163.551254,345.856842 163.104248,345.208496 
	C163.493607,345.251251 163.877975,345.620239 164.358795,346.245148 
z"/>
<path fill="#4E709A" opacity="1.000000" stroke="none" 
	d="
M163.099701,344.634399 
	C162.756195,344.488678 162.376129,344.054291 161.995056,343.314728 
	C162.350403,343.454956 162.706787,343.900360 163.099701,344.634399 
z"/>
<path fill="#476A95" opacity="1.000000" stroke="none" 
	d="
M105.945602,345.389343 
	C106.104485,345.319885 106.144112,345.649536 106.167175,345.814331 
	C106.190231,345.979095 105.838768,346.061401 105.658340,346.061584 
	C105.493660,345.816101 105.596596,345.615112 105.945602,345.389343 
z"/>
<path fill="#3A5988" opacity="1.000000" stroke="none" 
	d="
M197.715424,173.478180 
	C197.976669,173.439178 198.282364,173.638824 198.494568,174.123810 
	C198.083282,174.274796 197.869537,174.044006 197.715424,173.478180 
z"/>
<path fill="#3A5988" opacity="1.000000" stroke="none" 
	d="
M196.910019,172.348450 
	C197.139496,172.302292 197.424850,172.524170 197.736282,173.027954 
	C197.496872,173.078735 197.231384,172.847626 196.910019,172.348450 
z"/>
<path fill="#C9B5C6" opacity="1.000000" stroke="none" 
	d="
M226.938019,143.266846 
	C226.868927,143.457169 226.699371,143.529129 226.281891,143.482147 
	C226.235367,143.086136 226.503220,143.014572 226.938019,143.266846 
z"/>
<path fill="#C9B5C6" opacity="1.000000" stroke="none" 
	d="
M229.623871,355.090820 
	C229.828354,355.165375 229.889511,355.335236 229.863571,355.760742 
	C229.677826,355.739655 229.579178,355.462860 229.623871,355.090820 
z"/>
<path fill="#C9B5C6" opacity="1.000000" stroke="none" 
	d="
M229.668396,358.076782 
	C229.909012,358.072815 230.018097,358.226013 230.217804,358.647919 
	C230.051208,358.689056 229.794037,358.461517 229.668396,358.076782 
z"/>
</svg>